<svg version="1.1" id="Layer_1" xmlns="http://www.w3.org/2000/svg" xmlns:xlink="http://www.w3.org/1999/xlink" x="0px" y="0px"
	 width="100%" viewBox="0 0 1024 1024" enable-background="new 0 0 1024 1024" xml:space="preserve">
<path fill="#000000" opacity="1.000000" stroke="none" 
	d="
M435.899170,215.529053 
	C444.819824,213.854660 452.125824,215.922455 458.041779,222.459167 
	C462.209564,227.064270 467.936188,229.212479 473.448944,231.460358 
	C481.463074,234.728165 489.719727,237.395874 497.814514,240.473236 
	C501.657562,241.934235 505.652588,241.911896 509.620667,242.245255 
	C519.978760,243.115417 529.990540,245.615753 539.821167,248.826248 
	C547.302185,251.269363 554.788025,251.498718 562.503662,250.266251 
	C575.497925,248.190567 588.387085,245.847488 600.922302,241.627731 
	C607.917969,239.272797 614.128601,235.301971 621.064697,232.887680 
	C628.647583,230.248260 636.205566,227.973358 644.415222,228.343079 
	C657.759460,228.944061 666.740417,236.628403 673.656433,246.823746 
	C680.746094,257.275024 689.198181,265.495758 701.635010,268.813843 
	C710.210632,271.101776 717.529297,276.408295 726.141846,278.637756 
	C731.346252,279.984955 736.670776,281.186127 741.899719,280.859222 
	C759.987549,279.728363 772.524902,288.685760 783.090149,302.014526 
	C793.090149,314.630188 799.421021,329.005310 804.225830,344.201324 
	C810.778015,364.923645 816.692993,385.751831 814.998352,407.847687 
	C814.412415,415.487823 814.121887,423.129425 813.831299,430.783813 
	C813.274536,445.448334 815.451599,459.616364 819.660522,473.642426 
	C824.403381,489.447906 825.251160,505.360291 819.281311,521.191895 
	C817.639648,525.545410 816.505432,530.092041 815.176147,534.561279 
	C809.823303,552.558411 797.711365,566.043152 785.301697,579.325867 
	C779.960266,585.043030 775.117493,591.185120 769.735352,596.887329 
	C745.604736,622.452820 719.116028,645.580627 694.242798,670.368164 
	C676.068176,688.480286 659.127502,707.688965 644.211182,728.630493 
	C637.831421,737.587341 628.679199,743.604980 620.236633,750.326477 
	C616.077393,753.637695 611.440613,756.342834 607.206543,759.567444 
	C590.173096,772.539978 570.418884,777.513306 549.622498,780.156677 
	C539.587341,781.432312 529.566162,783.721558 519.891663,786.698975 
	C508.087616,790.331604 495.876312,790.115906 483.919525,792.071411 
	C465.192078,795.134277 446.879608,792.261841 428.430878,789.049805 
	C414.217346,786.575134 399.956604,788.263489 386.134247,792.774231 
	C382.654205,793.909851 379.110382,794.874634 375.553833,795.746643 
	C361.678925,799.148499 349.367432,794.661194 337.470978,788.104126 
	C335.581390,787.062683 333.603455,786.179688 331.654419,785.248413 
	C326.162262,782.624512 322.396118,778.484253 319.906219,772.892517 
	C310.819977,752.486816 307.270294,730.533630 301.473022,709.188049 
	C296.302856,690.151367 295.344574,670.823975 293.936157,651.428650 
	C293.221008,641.580322 290.840118,631.936279 288.013367,622.604858 
	C285.739990,615.100098 281.249451,608.223755 277.412079,601.250488 
	C274.595612,596.132446 271.798584,591.035156 269.787292,585.542297 
	C265.929871,575.007629 260.432526,565.353149 254.092957,556.143311 
	C250.760788,551.302673 248.395905,546.014954 246.574615,540.424133 
	C243.108948,529.785706 238.480347,519.704407 232.783020,510.014618 
	C222.714844,492.891022 219.845627,474.132629 222.182037,454.604492 
	C223.780655,441.242828 222.095718,427.971466 221.516342,414.704773 
	C221.092316,404.995300 221.969101,395.484528 225.196121,386.693909 
	C229.731430,374.339478 232.548172,361.418488 237.964737,349.380829 
	C242.738937,338.770752 249.685959,329.705139 257.606293,321.336334 
	C273.429169,304.617584 292.891479,292.093750 309.571442,276.287659 
	C319.173981,267.188202 330.803986,261.040924 344.070648,257.144897 
	C367.445312,250.280441 391.149109,243.773727 412.293854,230.888901 
	C416.427399,228.370087 420.499176,225.821182 424.054962,222.483749 
	C427.352234,219.388962 430.939117,216.677567 435.899170,215.529053 
M430.357910,617.247620 
	C431.068817,621.513306 431.482758,625.786011 431.383118,630.133362 
	C431.196442,638.277466 432.758972,646.344604 432.476898,654.523621 
	C432.344055,658.376038 434.007874,661.002625 438.817383,660.749939 
	C445.630859,660.391968 452.477081,660.642700 459.309235,660.664307 
	C461.342834,660.670715 463.226837,660.506714 464.884186,659.030273 
	C477.022186,648.217163 489.556763,637.819458 501.251587,626.549072 
	C509.364075,618.730957 518.016541,611.537659 526.089233,603.683472 
	C538.925720,591.194336 552.502991,579.456421 565.148743,566.783936 
	C588.287109,543.596558 612.044800,521.014709 633.210083,495.886780 
	C647.772522,478.597839 661.353943,460.846497 670.605652,440.037415 
	C678.329041,422.665924 681.855286,405.054443 675.594238,386.435669 
	C671.419434,374.020782 655.679626,363.875946 643.598022,365.583130 
	C627.101868,367.914154 611.884827,373.556366 599.646912,384.895569 
	C589.880615,393.944641 586.270569,401.061859 594.602844,413.110718 
	C597.650085,417.517181 600.158447,422.188232 602.588623,426.876709 
	C606.797363,434.996674 608.263916,443.552856 606.737549,452.876343 
	C604.575317,466.083588 597.931702,477.312042 591.304077,488.275146 
	C576.640930,512.530273 557.234131,533.162903 538.069092,553.856628 
	C528.116699,564.602844 517.449890,574.687622 507.091675,585.057129 
	C506.079193,586.070679 505.283356,587.482605 503.170715,587.386902 
	C503.021667,586.682556 502.731445,585.925110 502.719727,585.163269 
	C502.553314,574.359680 502.294708,563.566956 501.841492,552.764160 
	C501.264191,539.002747 500.402496,525.255188 499.876190,511.504456 
	C499.089233,490.943512 497.166168,470.490845 495.784943,449.986847 
	C494.544952,431.579712 492.329132,413.403107 487.486725,395.583832 
	C484.307343,383.884430 478.438965,374.115387 467.075104,368.781738 
	C458.981781,364.983154 450.416321,364.758057 441.829224,367.133057 
	C426.522858,371.366486 412.253265,377.843323 398.986908,386.634247 
	C381.342163,398.326416 364.921631,411.402222 350.802582,427.276978 
	C348.314606,430.074280 348.228943,432.289734 350.352295,435.157532 
	C352.722534,438.358765 354.848511,441.742004 357.054352,445.063599 
	C359.990387,449.484711 361.206268,449.644501 364.997986,445.766174 
	C373.539825,437.029236 383.003540,429.541809 393.817688,423.762756 
	C402.601379,419.068787 408.194794,421.205475 411.584259,430.621124 
	C414.773010,439.479156 414.885193,448.849335 416.234344,457.996521 
	C418.044525,470.269165 419.278320,482.629639 420.623840,494.967224 
	C421.951904,507.144684 423.213928,519.331299 424.310669,531.531372 
	C425.156403,540.939880 425.925873,550.356506 426.601257,559.782837 
	C427.950653,578.615723 429.660919,597.421509 430.357910,617.247620 
z"/>
</svg>